<svg id="Capa_1" data-name="Capa 1" xmlns="http://www.w3.org/2000/svg" viewBox="0 0 416.28 410.76" fill="#ffffff">
<defs><style>.cls-1{fill:#003972;}</style></defs>
<path class="cls-1" d="M440.56,335.31a14.13,14.13,0,1,0,20,0A14.14,14.14,0,0,0,440.56,335.31Z" transform="translate(-75.32 -78.08)"/><path class="cls-1" d="M234.65,129.4a14.26,14.26,0,1,0-20.17,0A14.26,14.26,0,0,0,234.65,129.4Z" transform="translate(-75.32 -78.08)"/><path class="cls-1" d="M488.48,181c-.28-.33-.56-.65-.87-.95a13.59,13.59,0,0,0-14-3.25L350.86,218.83l42-122.72a13.62,13.62,0,0,0-3.24-14c-.31-.3-.63-.59-1-.86a13.62,13.62,0,0,0-15.42-1.34l-140.7,80.37c-2.05-1.31-4.13-2.73-6.17-4-62.83-38.42-111.34-45.65-136.57-20.43a47.75,47.75,0,0,0-12.22,21.43c-7.45,27,3.31,66.49,31.33,113a155.74,155.74,0,0,0,185,185c34.65,20.86,65.35,32.15,89.94,33.47,18.71,1,33.87-3.73,44.51-14.37C452.73,450,446.78,403.81,411.66,344c-1-1.79-2-3.6-3.08-5.4l81.23-142.21A13.62,13.62,0,0,0,488.48,181Zm-176.2,41.77a591.6,591.6,0,0,0-47.64-40.24L341,138.88Zm92.86,228.38c-2.17,2.16-5.46,3.71-9.77,4.46-7.7,1.4-18.78.3-32.79-4.08A197,197,0,0,1,335,440.29a155.29,155.29,0,0,0,36.65-27.19,152.45,152.45,0,0,0,11.65-13.26L366.9,367.07c-4.64,8.16-10.11,14.43-18.5,22.82a123.1,123.1,0,0,1-174.09-174.1,120.69,120.69,0,0,1,23.06-17.95l-31.18-18.31a149.83,149.83,0,0,0-42.3,49.74c-15.81-32.41-18.64-55.28-13.58-66.17a13.56,13.56,0,0,1,2.75-4.06c8.1-8.1,32.11-7.3,68.32,10,5,2.48,12.64,6.23,17,8.8,6.86,4.08,14.88,8.83,17.62,10.63q11.49,7.35,23.16,15.9a567.62,567.62,0,0,1,64.77,56c.59.59,1.13,1.2,1.72,1.79a13.09,13.09,0,0,0,.86,1.14c.25.25.58.41.86.64a555.44,555.44,0,0,1,56.35,66.54c3.89,5.44,7.52,10.87,11,16.27l0,0,.88,1.38a2.43,2.43,0,0,0,.14.2h0l.23.37,1.8,2.83,0,.13c.69,1.1,1.4,2.2,2.08,3.3,1.37,2.25,2.66,4.45,3.93,6.62.27.47.55.94.81,1.41,1.26,2.17,2.47,4.33,3.62,6.44l.06.11c1.18,2.16,2.29,4.27,3.36,6.36l.37.72c1.09,2.14,2.13,4.25,3.12,6.31C412.44,419,413.24,443,405.14,451.13ZM386.6,306.05c-1.37-1.83-2.21-2.91-2.21-2.91a585.08,585.08,0,0,0-37.82-45.6l84.22-28.86Z" transform="translate(-75.32 -78.08)"/>
</svg>