<svg id="Capa_1" data-name="Capa 1" xmlns="http://www.w3.org/2000/svg" viewBox="0 0 566.93 566.93"><defs><style>.cls-1{fill:#38ddbc;}.cls-2{fill:#003972;}</style></defs><rect class="cls-1" width="566.93" height="566.93"/><path class="cls-2" d="M208.53,270.54a3.18,3.18,0,1,0,4.5,0A3.17,3.17,0,0,0,208.53,270.54Z"/><path class="cls-2" d="M162.13,224.14a3.21,3.21,0,1,0-4.55,0A3.22,3.22,0,0,0,162.13,224.14Z"/><path class="cls-2" d="M219.33,235.76l-.2-.21a3.05,3.05,0,0,0-3.16-.73l-27.65,9.47,9.47-27.65a3.07,3.07,0,0,0-.73-3.16,2.09,2.09,0,0,0-.22-.2,3.07,3.07,0,0,0-3.47-.3l-31.71,18.11c-.46-.3-.93-.62-1.39-.9-14.16-8.65-25.09-10.28-30.77-4.6a10.83,10.83,0,0,0-2.76,4.83c-1.67,6.09.75,15,7.07,25.46a35.09,35.09,0,0,0,41.67,41.69c7.81,4.7,14.73,7.24,20.27,7.54,4.21.23,7.63-.84,10-3.24,5.49-5.5,4.15-15.89-3.76-29.37-.22-.4-.46-.81-.7-1.22l18.31-32A3.09,3.09,0,0,0,219.33,235.76Zm-39.71,9.42a131.38,131.38,0,0,0-10.73-9.07l17.21-9.83Zm20.93,51.46a4,4,0,0,1-2.2,1,16.24,16.24,0,0,1-7.39-.92,44.71,44.71,0,0,1-6.23-2.52,33.92,33.92,0,0,0,10.89-9.12l-3.69-7.38a23.48,23.48,0,0,1-4.17,5.14,27.74,27.74,0,1,1-39.23-39.23,27.3,27.3,0,0,1,5.2-4.05l-7-4.12a34.57,34.57,0,0,0-3.4,2.94,35.07,35.07,0,0,0-6.13,8.26c-3.56-7.3-4.2-12.45-3.06-14.9a3.16,3.16,0,0,1,.62-.92c1.83-1.83,7.24-1.64,15.39,2.25,1.14.55,2.85,1.4,3.83,2,1.55.92,3.35,2,4,2.39,1.73,1.11,3.47,2.3,5.22,3.59a127.44,127.44,0,0,1,14.59,12.6l.39.41c.07.08.12.18.19.25s.14.1.2.15a125.29,125.29,0,0,1,12.7,15c.87,1.23,1.69,2.45,2.48,3.67h0l.19.32,0,0h0a.41.41,0,0,0,0,.09l.4.63,0,0,.46.75c.31.5.6,1,.89,1.49l.18.32c.29.49.56,1,.82,1.45v0c.27.49.52,1,.76,1.44l.08.16c.25.48.48,1,.7,1.42C202.19,289.41,202.37,294.81,200.55,296.64ZM196.37,264c-.31-.42-.5-.66-.5-.66A131.3,131.3,0,0,0,187.35,253l19-6.5Z"/><path class="cls-2" d="M126.23,337.36a17.78,17.78,0,0,1,1.18-6.45,16.1,16.1,0,0,1,3.42-5.42,16.39,16.39,0,0,1,5.51-3.7,19.25,19.25,0,0,1,7.45-1.37,17.7,17.7,0,0,1,9.52,2.4,15.3,15.3,0,0,1,5.79,6.25L149.39,332a6.28,6.28,0,0,0-5.67-3.11,6.73,6.73,0,0,0-5.19,2.3,8.8,8.8,0,0,0-2.09,6.17,10.59,10.59,0,0,0,.56,3.51,7.84,7.84,0,0,0,1.56,2.71,7.12,7.12,0,0,0,2.33,1.75,6.85,6.85,0,0,0,6.26-.29,5.72,5.72,0,0,0,2.3-2.33l9.72,3a14.67,14.67,0,0,1-5.76,6.22,18.06,18.06,0,0,1-9.62,2.43,18.47,18.47,0,0,1-7.38-1.4,16.89,16.89,0,0,1-5.54-3.73,15.85,15.85,0,0,1-3.46-5.42A17.8,17.8,0,0,1,126.23,337.36Z"/><path class="cls-2" d="M179,354.35a19.18,19.18,0,0,1-7.38-1.34,16.24,16.24,0,0,1-5.54-3.64,15.53,15.53,0,0,1-3.46-5.32,17.17,17.17,0,0,1-1.18-6.32,18.76,18.76,0,0,1,1.18-6.69,16.21,16.21,0,0,1,3.43-5.52,16,16,0,0,1,5.51-3.73,19.16,19.16,0,0,1,7.44-1.37,18.94,18.94,0,0,1,7.41,1.37,16.46,16.46,0,0,1,5.48,3.7,15.88,15.88,0,0,1,3.39,5.39,17.93,17.93,0,0,1,1.15,6.41q0,.87-.06,1.71a10.6,10.6,0,0,1-.19,1.47H172a6.73,6.73,0,0,0,2.4,5,7.63,7.63,0,0,0,4.89,1.71,9,9,0,0,0,4.2-1.05,5.45,5.45,0,0,0,2.71-2.87l8.47,2.37a15.2,15.2,0,0,1-6,6.28A18.54,18.54,0,0,1,179,354.35Zm6.91-20.05a7.51,7.51,0,0,0-2.24-4.91,6.74,6.74,0,0,0-4.8-1.81,6.62,6.62,0,0,0-4.82,1.84,7.54,7.54,0,0,0-2.21,4.88Z"/><path class="cls-2" d="M221.68,329.57a19,19,0,0,0-6.54,1.19,7.9,7.9,0,0,0-4.23,3.36v19.61H201V321h9.15v6.6a13.87,13.87,0,0,1,4.33-5.17,10,10,0,0,1,5.63-1.93h1a2.68,2.68,0,0,1,.62.07Z"/><path class="cls-2" d="M222.3,337.36a17.79,17.79,0,0,1,1.19-6.45,16,16,0,0,1,3.42-5.42,16.19,16.19,0,0,1,5.51-3.7,19.16,19.16,0,0,1,7.44-1.37,17.74,17.74,0,0,1,9.53,2.4,15.44,15.44,0,0,1,5.79,6.25L245.47,332a6.28,6.28,0,0,0-5.67-3.11,6.74,6.74,0,0,0-5.2,2.3,8.85,8.85,0,0,0-2.09,6.17,10.34,10.34,0,0,0,.57,3.51,8,8,0,0,0,1.55,2.71,7.05,7.05,0,0,0,2.34,1.75,6.68,6.68,0,0,0,2.83.62,6.61,6.61,0,0,0,3.42-.91,5.81,5.81,0,0,0,2.31-2.33l9.71,3a14.55,14.55,0,0,1-5.76,6.22,18,18,0,0,1-9.62,2.43,18.47,18.47,0,0,1-7.38-1.4,17,17,0,0,1-5.54-3.73,15.82,15.82,0,0,1-3.45-5.42A17.81,17.81,0,0,1,222.3,337.36Z"/><path class="cls-2" d="M269,354.35a12.76,12.76,0,0,1-4.51-.78,10.3,10.3,0,0,1-5.95-5.47,9.86,9.86,0,0,1-.87-4.15,9.47,9.47,0,0,1,1-4.42,10.15,10.15,0,0,1,2.89-3.42,14.2,14.2,0,0,1,4.43-2.24,18.65,18.65,0,0,1,5.66-.81,22.69,22.69,0,0,1,4,.34,13.15,13.15,0,0,1,3.36,1v-1.5q0-5.65-6.54-5.66a14.58,14.58,0,0,0-5.11.9,24.71,24.71,0,0,0-5.1,2.71l-2.93-6.23a25.94,25.94,0,0,1,6.73-3.17,25.19,25.19,0,0,1,7.41-1.06q7.39,0,11.45,3.48T289,334.12v8.4a3.47,3.47,0,0,0,.47,2.09,2.32,2.32,0,0,0,1.65.72v8.4a16.06,16.06,0,0,1-2.37.4c-.7.07-1.35.1-1.93.1a6.94,6.94,0,0,1-4.23-1.09,4.81,4.81,0,0,1-1.81-3.08l-.18-1.5a15.05,15.05,0,0,1-5.2,4.3A14.21,14.21,0,0,1,269,354.35Zm2.93-7.16a9.08,9.08,0,0,0,3.14-.56,7.37,7.37,0,0,0,2.53-1.49,3.11,3.11,0,0,0,1.43-2.37v-3.11a16.57,16.57,0,0,0-2.84-.78,15.38,15.38,0,0,0-2.83-.28,7.65,7.65,0,0,0-4.51,1.24,3.83,3.83,0,0,0-1.78,3.24,3.7,3.7,0,0,0,1.37,3A5.24,5.24,0,0,0,271.93,347.19Z"/><path class="cls-2" d="M309.23,354.35a13.88,13.88,0,0,1-6.11-1.34,15.21,15.21,0,0,1-4.85-3.64,16.88,16.88,0,0,1-3.21-5.38,19.66,19.66,0,0,1-.06-13.08,17,17,0,0,1,3.05-5.32,14.79,14.79,0,0,1,4.61-3.65,13.5,13.5,0,0,1,12.73.56,13.91,13.91,0,0,1,4.67,4.83V308.28h6.85v37.36a2.71,2.71,0,0,0,.4,1.68,2,2,0,0,0,1.47.56v5.85c-.71.13-1.28.21-1.71.25s-.81.06-1.1.06a5.16,5.16,0,0,1-3.36-1.06,3.73,3.73,0,0,1-1.43-2.74l-.12-2.43a13,13,0,0,1-4.92,4.8A13.94,13.94,0,0,1,309.23,354.35Zm1.68-5.85a9.41,9.41,0,0,0,3-.5,10.72,10.72,0,0,0,2.75-1.37,9.48,9.48,0,0,0,2.14-2.05,7.29,7.29,0,0,0,1.28-2.55v-8.54a10.05,10.05,0,0,0-1.59-2.86,11.22,11.22,0,0,0-2.33-2.24,10.73,10.73,0,0,0-2.77-1.43,9.24,9.24,0,0,0-3-.5,7.77,7.77,0,0,0-3.77.93,9.81,9.81,0,0,0-3,2.49,12.36,12.36,0,0,0-2,3.55,12,12,0,0,0-.71,4.11,11.57,11.57,0,0,0,.78,4.24,10.93,10.93,0,0,0,2.14,3.48,10.5,10.5,0,0,0,3.15,2.37A8.57,8.57,0,0,0,310.91,348.5Z"/><path class="cls-2" d="M348.2,354.35a17.21,17.21,0,0,1-6.91-1.34,16,16,0,0,1-5.32-3.64,16.46,16.46,0,0,1-3.43-5.35,18,18,0,0,1,0-13,16.67,16.67,0,0,1,3.43-5.42,15.94,15.94,0,0,1,5.32-3.68,17.55,17.55,0,0,1,7-1.33,16.67,16.67,0,0,1,6.88,1.37,16.44,16.44,0,0,1,5.26,3.64,15.63,15.63,0,0,1,3.33,5.29,17.56,17.56,0,0,1,1.15,6.32c0,.5,0,1-.06,1.4s-.08.8-.12,1.09h-26.1a11.27,11.27,0,0,0,1,3.92,10.25,10.25,0,0,0,2.18,3,9.22,9.22,0,0,0,3.05,2,9.5,9.5,0,0,0,3.58.69,11.24,11.24,0,0,0,2.71-.34,9.55,9.55,0,0,0,2.46-1,8.54,8.54,0,0,0,2-1.59,7.29,7.29,0,0,0,1.37-2.05l5.86,1.68a13.57,13.57,0,0,1-5.58,6A17.31,17.31,0,0,1,348.2,354.35ZM358.1,335a10.85,10.85,0,0,0-1-3.8,9.85,9.85,0,0,0-2.15-3,9.64,9.64,0,0,0-3.05-1.9,10.14,10.14,0,0,0-3.68-.68,9.85,9.85,0,0,0-3.64.68,9.73,9.73,0,0,0-3,1.9,9.45,9.45,0,0,0-2.12,3,11.27,11.27,0,0,0-1,3.8Z"/><path class="cls-2" d="M421.49,353.73h-10V335.36a7.47,7.47,0,0,0-1.19-4.7,3.75,3.75,0,0,0-3-1.46,5.14,5.14,0,0,0-2,.43,7,7,0,0,0-1.9,1.22,10.15,10.15,0,0,0-1.59,1.83,10,10,0,0,0-1.15,2.31v18.74h-10V335.36a7.54,7.54,0,0,0-1.18-4.7,3.77,3.77,0,0,0-3.06-1.46,6.05,6.05,0,0,0-3.89,1.59,9.07,9.07,0,0,0-2.77,4.2v18.74h-10V321h9v5.48a11.88,11.88,0,0,1,4.89-4.54,15.76,15.76,0,0,1,7.19-1.56,11.36,11.36,0,0,1,3.59.5,8.69,8.69,0,0,1,2.64,1.37,7.22,7.22,0,0,1,1.81,2,8.76,8.76,0,0,1,1,2.46,13,13,0,0,1,4.92-4.7,14.45,14.45,0,0,1,7-1.65,9.58,9.58,0,0,1,5,1.15,8.47,8.47,0,0,1,3,3,11.65,11.65,0,0,1,1.4,4,28.23,28.23,0,0,1,.34,4.23Z"/><path class="cls-2" d="M428,353.73V321h10v32.69Zm7.63-46.89c-1.15,1.15-6.16,8-5,9.18s8-3.85,9.19-5a3,3,0,1,0-4.18-4.17Z"/></svg>