<svg id="Capa_1" data-name="Capa 1" xmlns="http://www.w3.org/2000/svg" viewBox="0 0 566.93 566.93"><defs><style>.cls-1{fill:#38ddbc;}.cls-2{fill:#003972;}</style></defs><rect class="cls-1" width="566.93" height="566.93"/><path class="cls-2" d="M333.51,269.06a4.5,4.5,0,1,0,6.37,0A4.52,4.52,0,0,0,333.51,269.06Z"/><path class="cls-2" d="M267.91,203.46a4.54,4.54,0,1,0-6.42,0A4.54,4.54,0,0,0,267.91,203.46Z"/><path class="cls-2" d="M348.78,219.89q-.13-.16-.27-.3a4.36,4.36,0,0,0-4.48-1L304.94,232l13.39-39.1a4.33,4.33,0,0,0-1-4.47l-.31-.28a4.32,4.32,0,0,0-4.91-.42l-44.83,25.6c-.65-.41-1.31-.87-2-1.27-20-12.24-35.48-14.54-43.51-6.5a15.22,15.22,0,0,0-3.9,6.82c-2.37,8.61,1.06,21.19,10,36a49.61,49.61,0,0,0,58.92,58.93c11,6.65,20.82,10.24,28.65,10.66,6,.33,10.8-1.19,14.19-4.58,7.76-7.76,5.87-22.47-5.32-41.52-.31-.57-.65-1.14-1-1.72l25.88-45.3A4.35,4.35,0,0,0,348.78,219.89ZM292.64,233.2a187.24,187.24,0,0,0-15.17-12.82l24.33-13.9ZM322.23,306a5.71,5.71,0,0,1-3.11,1.42c-2.46.45-6,.09-10.45-1.3a62.85,62.85,0,0,1-8.8-3.57,49.61,49.61,0,0,0,11.68-8.67,47.46,47.46,0,0,0,3.71-4.22l-5.21-10.44a33.18,33.18,0,0,1-5.9,7.27A39.22,39.22,0,1,1,248.69,231a38.63,38.63,0,0,1,7.34-5.72l-9.93-5.83a47.83,47.83,0,0,0-13.48,15.84c-5-10.32-5.93-17.61-4.32-21.08a4.5,4.5,0,0,1,.87-1.29c2.58-2.58,10.23-2.32,21.77,3.18,1.6.79,4,2,5.41,2.8,2.18,1.3,4.74,2.81,5.61,3.39,2.44,1.56,4.91,3.25,7.38,5.06A179.82,179.82,0,0,1,290,245.16c.19.18.37.38.55.57s.17.25.28.36.18.13.27.21A176.18,176.18,0,0,1,309,267.5c1.25,1.73,2.4,3.46,3.51,5.18h0l.28.44.05.07h0l.07.12.58.9v0c.22.35.45.7.66,1.05.44.72.85,1.42,1.26,2.11.08.15.17.3.26.45.4.69.78,1.38,1.15,2l0,0c.37.68.73,1.36,1.07,2l.12.23c.34.68.68,1.36,1,2C324.56,295.73,324.81,303.38,322.23,306Zm-5.91-46.22c-.43-.59-.7-.93-.7-.93a185.33,185.33,0,0,0-12.05-14.53l26.83-9.19Z"/><path class="cls-2" d="M126.85,362.89a17.91,17.91,0,0,1,1.18-6.42,15.77,15.77,0,0,1,8.9-9.08,19,19,0,0,1,7.41-1.37,17.66,17.66,0,0,1,9.49,2.39,15.34,15.34,0,0,1,5.77,6.23l-9.68,2.92a6.22,6.22,0,0,0-5.64-3.1,6.7,6.7,0,0,0-5.18,2.29,8.83,8.83,0,0,0-2.08,6.14,10.59,10.59,0,0,0,.56,3.51,8,8,0,0,0,1.55,2.69,7,7,0,0,0,2.33,1.74,6.83,6.83,0,0,0,6.23-.28,5.82,5.82,0,0,0,2.3-2.32l9.67,3a14.52,14.52,0,0,1-5.74,6.2,17.87,17.87,0,0,1-9.58,2.42,18.56,18.56,0,0,1-7.35-1.39,16.88,16.88,0,0,1-5.52-3.72,15.91,15.91,0,0,1-3.44-5.4A17.87,17.87,0,0,1,126.85,362.89Z"/><path class="cls-2" d="M179.38,379.82a19.29,19.29,0,0,1-7.35-1.33,16.37,16.37,0,0,1-5.52-3.63,15.79,15.79,0,0,1-3.44-5.3,17.23,17.23,0,0,1-1.18-6.3,18.9,18.9,0,0,1,1.18-6.66,16.18,16.18,0,0,1,3.41-5.49,16,16,0,0,1,5.49-3.72,19,19,0,0,1,7.41-1.37,18.79,18.79,0,0,1,7.38,1.37,16.25,16.25,0,0,1,5.46,3.69,15.58,15.58,0,0,1,3.38,5.36,17.86,17.86,0,0,1,1.15,6.39c0,.58,0,1.15-.06,1.7a12.19,12.19,0,0,1-.19,1.46H172.44a6.65,6.65,0,0,0,2.39,5,7.55,7.55,0,0,0,4.86,1.71,9,9,0,0,0,4.19-1.05,5.45,5.45,0,0,0,2.7-2.86l8.43,2.36a15.14,15.14,0,0,1-5.95,6.26A18.4,18.4,0,0,1,179.38,379.82Zm6.89-20A7.41,7.41,0,0,0,184,355a7.23,7.23,0,0,0-9.58,0,7.6,7.6,0,0,0-2.2,4.86Z"/><path class="cls-2" d="M221.93,355.14a18.91,18.91,0,0,0-6.52,1.18,7.88,7.88,0,0,0-4.21,3.35V379.2h-9.93V346.64h9.12v6.58a13.85,13.85,0,0,1,4.31-5.15,9.93,9.93,0,0,1,5.61-1.92h1a3.36,3.36,0,0,1,.63.06Z"/><path class="cls-2" d="M222.55,362.89a17.7,17.7,0,0,1,1.18-6.42,15.71,15.71,0,0,1,8.89-9.08A19.08,19.08,0,0,1,240,346a17.66,17.66,0,0,1,9.49,2.39,15.27,15.27,0,0,1,5.77,6.23l-9.67,2.92a6.25,6.25,0,0,0-5.65-3.1,6.66,6.66,0,0,0-5.17,2.29,8.78,8.78,0,0,0-2.08,6.14,10.34,10.34,0,0,0,.56,3.51,7.82,7.82,0,0,0,1.55,2.69,6.91,6.91,0,0,0,2.32,1.74,6.83,6.83,0,0,0,6.23-.28,5.76,5.76,0,0,0,2.3-2.32l9.67,3a14.55,14.55,0,0,1-5.73,6.2,17.93,17.93,0,0,1-9.59,2.42,18.47,18.47,0,0,1-7.34-1.39,16.88,16.88,0,0,1-5.52-3.72,15.62,15.62,0,0,1-3.44-5.4A17.66,17.66,0,0,1,222.55,362.89Z"/><path class="cls-2" d="M269.06,379.82a12.87,12.87,0,0,1-4.49-.77,10.29,10.29,0,0,1-5.93-5.46,9.75,9.75,0,0,1-.87-4.12,9.52,9.52,0,0,1,1-4.41,10.09,10.09,0,0,1,2.88-3.41,14.34,14.34,0,0,1,4.4-2.23,18.58,18.58,0,0,1,5.65-.81,22.46,22.46,0,0,1,4,.35,12.5,12.5,0,0,1,3.34,1v-1.49q0-5.64-6.51-5.65a14.45,14.45,0,0,0-5.08.9,24.58,24.58,0,0,0-5.09,2.7l-2.91-6.2a26,26,0,0,1,6.7-3.16,25,25,0,0,1,7.38-1.06q7.37,0,11.41,3.48t4,10.17V368a3.47,3.47,0,0,0,.46,2.08,2.32,2.32,0,0,0,1.65.71v8.37a14.74,14.74,0,0,1-2.36.4c-.7.07-1.34.1-1.92.1a6.86,6.86,0,0,1-4.22-1.09,4.79,4.79,0,0,1-1.8-3.07l-.18-1.49a14.82,14.82,0,0,1-5.18,4.28A14.08,14.08,0,0,1,269.06,379.82Zm2.91-7.13a9.12,9.12,0,0,0,3.14-.56,7.27,7.27,0,0,0,2.51-1.49,3.07,3.07,0,0,0,1.42-2.35v-3.1a16.87,16.87,0,0,0-5.64-1.06,7.66,7.66,0,0,0-4.49,1.24,3.8,3.8,0,0,0-1.77,3.23,3.65,3.65,0,0,0,1.36,2.94A5.19,5.19,0,0,0,272,372.69Z"/><path class="cls-2" d="M309.12,379.82a13.87,13.87,0,0,1-6.07-1.33,15.07,15.07,0,0,1-4.84-3.63,16.87,16.87,0,0,1-3.2-5.36,19.68,19.68,0,0,1-.06-13,17.22,17.22,0,0,1,3-5.3,14.65,14.65,0,0,1,4.59-3.63,13.4,13.4,0,0,1,12.68.56,13.74,13.74,0,0,1,4.66,4.81v-19h6.82v37.21a2.66,2.66,0,0,0,.4,1.67,1.91,1.91,0,0,0,1.46.56v5.83c-.71.13-1.28.21-1.71.25s-.8.06-1.08.06a5.14,5.14,0,0,1-3.35-1.05,3.71,3.71,0,0,1-1.43-2.73l-.12-2.42a13,13,0,0,1-4.9,4.78A14,14,0,0,1,309.12,379.82ZM310.8,374a9.34,9.34,0,0,0,3-.49,10.43,10.43,0,0,0,2.73-1.37,9.48,9.48,0,0,0,2.14-2.05,7.34,7.34,0,0,0,1.28-2.54v-8.49a10.16,10.16,0,0,0-1.59-2.86A11.65,11.65,0,0,0,316,354a10.63,10.63,0,0,0-2.76-1.42,9.19,9.19,0,0,0-2.95-.5,7.72,7.72,0,0,0-3.75.93,9.74,9.74,0,0,0-2.95,2.48,12.22,12.22,0,0,0-2,3.53,12,12,0,0,0-.71,4.1,11.66,11.66,0,0,0,.77,4.22,11.06,11.06,0,0,0,2.14,3.47,10.55,10.55,0,0,0,3.13,2.36A8.66,8.66,0,0,0,310.8,374Z"/><path class="cls-2" d="M348,379.82a17.28,17.28,0,0,1-6.89-1.33,16,16,0,0,1-5.3-3.63,16.43,16.43,0,0,1-3.41-5.33,17.24,17.24,0,0,1-1.21-6.45,17.43,17.43,0,0,1,1.21-6.48,16.63,16.63,0,0,1,3.41-5.4,15.81,15.81,0,0,1,5.3-3.66,17.4,17.4,0,0,1,6.95-1.33,16.85,16.85,0,0,1,6.85,1.36,16.53,16.53,0,0,1,5.24,3.63,15.62,15.62,0,0,1,3.32,5.27,17.67,17.67,0,0,1,1.15,6.3,12.19,12.19,0,0,1-.07,1.39c0,.44-.08.8-.12,1.09h-26a11.21,11.21,0,0,0,1,3.91,10.26,10.26,0,0,0,2.17,3,9.49,9.49,0,0,0,6.6,2.64,11.22,11.22,0,0,0,2.7-.34,9.67,9.67,0,0,0,2.45-1,8.81,8.81,0,0,0,2-1.59,7.57,7.57,0,0,0,1.36-2l5.83,1.67a13.57,13.57,0,0,1-5.55,6A17.21,17.21,0,0,1,348,379.82Zm9.86-19.28a11,11,0,0,0-1-3.79,9.51,9.51,0,0,0-5.17-4.84,10,10,0,0,0-3.66-.68,9.65,9.65,0,0,0-6.64,2.58,9.22,9.22,0,0,0-2.11,2.94,11.21,11.21,0,0,0-1,3.79Z"/><path class="cls-2" d="M420.94,379.2H411V360.91a7.47,7.47,0,0,0-1.18-4.68,3.72,3.72,0,0,0-3-1.46,5.17,5.17,0,0,0-2,.43,6.82,6.82,0,0,0-1.89,1.21,10.11,10.11,0,0,0-1.58,1.83,9.71,9.71,0,0,0-1.15,2.3V379.2h-9.92V360.91a7.41,7.41,0,0,0-1.18-4.68,3.7,3.7,0,0,0-3-1.46,6,6,0,0,0-3.87,1.58,9,9,0,0,0-2.76,4.19V379.2h-9.92V346.64h8.92v5.46a11.94,11.94,0,0,1,4.87-4.53,15.78,15.78,0,0,1,7.17-1.55,11.5,11.5,0,0,1,3.56.5,8.78,8.78,0,0,1,2.64,1.36,7.48,7.48,0,0,1,1.8,2,9,9,0,0,1,1,2.45,12.72,12.72,0,0,1,4.9-4.68,14.34,14.34,0,0,1,6.95-1.65,9.6,9.6,0,0,1,5,1.15,8.31,8.31,0,0,1,2.94,3,11.41,11.41,0,0,1,1.4,4,28,28,0,0,1,.34,4.21Z"/><path class="cls-2" d="M427.45,379.2V346.64h9.92V379.2Zm7.61-46.7c-1.15,1.15-6.14,8-5,9.14s8-3.84,9.14-5a2.94,2.94,0,0,0-4.15-4.16Z"/></svg>